%TF.GenerationSoftware,KiCad,Pcbnew,9.0.6*%
%TF.CreationDate,2026-01-26T23:14:37+09:00*%
%TF.ProjectId,bokaka,626f6b61-6b61-42e6-9b69-6361645f7063,rev?*%
%TF.SameCoordinates,Original*%
%TF.FileFunction,Soldermask,Bot*%
%TF.FilePolarity,Negative*%
%FSLAX46Y46*%
G04 Gerber Fmt 4.6, Leading zero omitted, Abs format (unit mm)*
G04 Created by KiCad (PCBNEW 9.0.6) date 2026-01-26 23:14:37*
%MOMM*%
%LPD*%
G01*
G04 APERTURE LIST*
G04 Aperture macros list*
%AMRoundRect*
0 Rectangle with rounded corners*
0 $1 Rounding radius*
0 $2 $3 $4 $5 $6 $7 $8 $9 X,Y pos of 4 corners*
0 Add a 4 corners polygon primitive as box body*
4,1,4,$2,$3,$4,$5,$6,$7,$8,$9,$2,$3,0*
0 Add four circle primitives for the rounded corners*
1,1,$1+$1,$2,$3*
1,1,$1+$1,$4,$5*
1,1,$1+$1,$6,$7*
1,1,$1+$1,$8,$9*
0 Add four rect primitives between the rounded corners*
20,1,$1+$1,$2,$3,$4,$5,0*
20,1,$1+$1,$4,$5,$6,$7,0*
20,1,$1+$1,$6,$7,$8,$9,0*
20,1,$1+$1,$8,$9,$2,$3,0*%
G04 Aperture macros list end*
%ADD10R,1.700000X1.700000*%
%ADD11C,1.700000*%
%ADD12RoundRect,0.218750X0.218750X0.381250X-0.218750X0.381250X-0.218750X-0.381250X0.218750X-0.381250X0*%
%ADD13RoundRect,0.135000X0.135000X0.185000X-0.135000X0.185000X-0.135000X-0.185000X0.135000X-0.185000X0*%
%ADD14RoundRect,0.135000X-0.135000X-0.185000X0.135000X-0.185000X0.135000X0.185000X-0.135000X0.185000X0*%
%ADD15RoundRect,0.140000X-0.170000X0.140000X-0.170000X-0.140000X0.170000X-0.140000X0.170000X0.140000X0*%
%ADD16RoundRect,0.218750X0.256250X-0.218750X0.256250X0.218750X-0.256250X0.218750X-0.256250X-0.218750X0*%
%ADD17RoundRect,0.135000X-0.185000X0.135000X-0.185000X-0.135000X0.185000X-0.135000X0.185000X0.135000X0*%
%ADD18RoundRect,0.140000X0.170000X-0.140000X0.170000X0.140000X-0.170000X0.140000X-0.170000X-0.140000X0*%
%ADD19RoundRect,0.140000X-0.140000X-0.170000X0.140000X-0.170000X0.140000X0.170000X-0.140000X0.170000X0*%
%ADD20C,1.016000*%
%ADD21R,1.270000X1.016000*%
%ADD22RoundRect,0.050000X0.285000X0.100000X-0.285000X0.100000X-0.285000X-0.100000X0.285000X-0.100000X0*%
%ADD23RoundRect,0.140000X0.140000X0.170000X-0.140000X0.170000X-0.140000X-0.170000X0.140000X-0.170000X0*%
%ADD24O,1.800000X1.200000*%
%ADD25O,2.100000X1.100000*%
%ADD26R,1.300000X0.600000*%
%ADD27R,1.300000X0.300000*%
%ADD28RoundRect,0.225000X0.225000X0.250000X-0.225000X0.250000X-0.225000X-0.250000X0.225000X-0.250000X0*%
%ADD29RoundRect,0.225000X0.250000X-0.225000X0.250000X0.225000X-0.250000X0.225000X-0.250000X-0.225000X0*%
%ADD30RoundRect,0.062500X-0.350000X-0.062500X0.350000X-0.062500X0.350000X0.062500X-0.350000X0.062500X0*%
%ADD31R,1.200000X2.000000*%
%ADD32RoundRect,0.250000X-0.475000X0.250000X-0.475000X-0.250000X0.475000X-0.250000X0.475000X0.250000X0*%
%ADD33RoundRect,0.225000X-0.225000X-0.250000X0.225000X-0.250000X0.225000X0.250000X-0.225000X0.250000X0*%
%ADD34RoundRect,0.150000X0.587500X0.150000X-0.587500X0.150000X-0.587500X-0.150000X0.587500X-0.150000X0*%
%ADD35RoundRect,0.112500X-0.187500X-0.112500X0.187500X-0.112500X0.187500X0.112500X-0.187500X0.112500X0*%
%ADD36R,2.400000X2.400000*%
%ADD37RoundRect,0.250000X0.625000X-0.375000X0.625000X0.375000X-0.625000X0.375000X-0.625000X-0.375000X0*%
%ADD38RoundRect,0.075000X0.075000X-0.700000X0.075000X0.700000X-0.075000X0.700000X-0.075000X-0.700000X0*%
%ADD39RoundRect,0.075000X0.700000X-0.075000X0.700000X0.075000X-0.700000X0.075000X-0.700000X-0.075000X0*%
%ADD40C,3.000000*%
%ADD41C,20.000000*%
G04 APERTURE END LIST*
D10*
%TO.C,UART*%
X112950000Y-78225000D03*
D11*
X112950000Y-75685000D03*
%TD*%
D10*
%TO.C,GND*%
X140357500Y-64780000D03*
%TD*%
%TO.C,3V3*%
X128350000Y-64750000D03*
D11*
X128350000Y-67290000D03*
%TD*%
D10*
%TO.C,VSYS*%
X132342500Y-64750000D03*
%TD*%
%TO.C,BATT*%
X136335000Y-64750000D03*
%TD*%
%TO.C,3V3*%
X124357500Y-64750000D03*
%TD*%
%TO.C,USB_DETECT*%
X106850000Y-71950000D03*
%TD*%
%TO.C,J6*%
X109760000Y-122000000D03*
D11*
X112300000Y-122000000D03*
X114840000Y-122000000D03*
%TD*%
D10*
%TO.C,J5*%
X179110000Y-122000000D03*
D11*
X181650000Y-122000000D03*
X184190000Y-122000000D03*
%TD*%
D12*
%TO.C,FB1*%
X97575000Y-95050000D03*
X95450000Y-95050000D03*
%TD*%
D13*
%TO.C,R13*%
X110710000Y-61150000D03*
X109690000Y-61150000D03*
%TD*%
D14*
%TO.C,R12*%
X107690000Y-61150000D03*
X108710000Y-61150000D03*
%TD*%
D15*
%TO.C,C19*%
X107800000Y-66520000D03*
X107800000Y-67480000D03*
%TD*%
D16*
%TO.C,L1*%
X114600000Y-64096500D03*
X114600000Y-62521500D03*
%TD*%
D17*
%TO.C,R14*%
X108850000Y-86230000D03*
X108850000Y-87250000D03*
%TD*%
%TO.C,R9*%
X104840000Y-65900000D03*
X104840000Y-66920000D03*
%TD*%
D15*
%TO.C,C16*%
X107800000Y-64500000D03*
X107800000Y-65460000D03*
%TD*%
%TO.C,C8*%
X92800000Y-88290000D03*
X92800000Y-89250000D03*
%TD*%
D18*
%TO.C,C5*%
X109100000Y-90210000D03*
X109100000Y-89250000D03*
%TD*%
D19*
%TO.C,C9*%
X99250000Y-93600000D03*
X100210000Y-93600000D03*
%TD*%
D15*
%TO.C,C4*%
X93900000Y-81770000D03*
X93900000Y-82730000D03*
%TD*%
D17*
%TO.C,R15*%
X110900000Y-87230000D03*
X110900000Y-88250000D03*
%TD*%
D20*
%TO.C,J3*%
X90009400Y-93810000D03*
D21*
X90009400Y-93810000D03*
D20*
X90009400Y-92540000D03*
D21*
X90009400Y-92540000D03*
D20*
X90009400Y-91270000D03*
D21*
X90009400Y-91270000D03*
D20*
X90009400Y-88730000D03*
D21*
X90009400Y-88730000D03*
D20*
X90009400Y-87460000D03*
D21*
X90009400Y-87460000D03*
D20*
X90009400Y-86190000D03*
D21*
X90009400Y-86190000D03*
%TD*%
D22*
%TO.C,U6*%
X104840000Y-63309000D03*
X104840000Y-63809000D03*
X104840000Y-64309000D03*
X104840000Y-64809000D03*
X103360000Y-64809000D03*
X103360000Y-64309000D03*
X103360000Y-63809000D03*
X103360000Y-63309000D03*
%TD*%
D23*
%TO.C,C7*%
X105250000Y-93600000D03*
X104290000Y-93600000D03*
%TD*%
D13*
%TO.C,R1*%
X95074000Y-63650000D03*
X94054000Y-63650000D03*
%TD*%
D24*
%TO.C,USBC1*%
X93062250Y-74325000D03*
D25*
X97262250Y-74325000D03*
D24*
X93062250Y-65675000D03*
D25*
X97262250Y-65675000D03*
D26*
X97912250Y-73209000D03*
X97912250Y-72409000D03*
D27*
X97912250Y-71259000D03*
X97912250Y-70259000D03*
X97912250Y-69759000D03*
X97913250Y-68759500D03*
D26*
X97912250Y-67609000D03*
X97912250Y-66809000D03*
D27*
X97912250Y-68259000D03*
X97912250Y-69259000D03*
X97912250Y-70759000D03*
X97913250Y-71759000D03*
%TD*%
D28*
%TO.C,C17*%
X99500000Y-63000000D03*
X97950000Y-63000000D03*
%TD*%
D29*
%TO.C,C15*%
X106450000Y-63809000D03*
X106450000Y-62259000D03*
%TD*%
D30*
%TO.C,U5*%
X109687500Y-64309000D03*
X109687500Y-63809000D03*
X109687500Y-63309000D03*
X109687500Y-62809000D03*
X109687500Y-62309000D03*
X112112500Y-62309000D03*
X112112500Y-62809000D03*
X112112500Y-63309000D03*
X112112500Y-63809000D03*
X112112500Y-64309000D03*
D31*
X110900000Y-63309000D03*
%TD*%
D17*
%TO.C,R10*%
X101660000Y-62390000D03*
X101660000Y-63410000D03*
%TD*%
D28*
%TO.C,C21*%
X112112500Y-65800000D03*
X110562500Y-65800000D03*
%TD*%
D32*
%TO.C,C1*%
X114200000Y-65800000D03*
X114200000Y-67700000D03*
%TD*%
D13*
%TO.C,R17*%
X113860000Y-108700000D03*
X112840000Y-108700000D03*
%TD*%
D33*
%TO.C,C10*%
X99250000Y-95050000D03*
X100800000Y-95050000D03*
%TD*%
D14*
%TO.C,R5*%
X94590000Y-76450000D03*
X95610000Y-76450000D03*
%TD*%
D34*
%TO.C,Q1*%
X110987500Y-108700000D03*
X110987500Y-110600000D03*
X109112500Y-109650000D03*
%TD*%
D28*
%TO.C,C11*%
X95450000Y-93250000D03*
X93900000Y-93250000D03*
%TD*%
D35*
%TO.C,D40*%
X101200000Y-107050000D03*
X103300000Y-107050000D03*
%TD*%
D23*
%TO.C,C6*%
X105710000Y-78400000D03*
X104750000Y-78400000D03*
%TD*%
D36*
%TO.C,BUZZER*%
X98850000Y-109650000D03*
X106050000Y-109650000D03*
X106049500Y-116849500D03*
X98850000Y-116850000D03*
%TD*%
D15*
%TO.C,C3*%
X93900000Y-88290000D03*
X93900000Y-89250000D03*
%TD*%
D37*
%TO.C,F1*%
X99950000Y-67609000D03*
X99950000Y-64809000D03*
%TD*%
D17*
%TO.C,R11*%
X107800000Y-62289000D03*
X107800000Y-63309000D03*
%TD*%
D15*
%TO.C,C20*%
X106400000Y-65070000D03*
X106400000Y-66030000D03*
%TD*%
D14*
%TO.C,R8*%
X102740000Y-65900000D03*
X103760000Y-65900000D03*
%TD*%
D38*
%TO.C,U2*%
X105250000Y-91675000D03*
X104750000Y-91675000D03*
X104250000Y-91675000D03*
X103750000Y-91675000D03*
X103250000Y-91675000D03*
X102750000Y-91675000D03*
X102250000Y-91675000D03*
X101750000Y-91675000D03*
X101250000Y-91675000D03*
X100750000Y-91675000D03*
X100250000Y-91675000D03*
X99750000Y-91675000D03*
X99250000Y-91675000D03*
X98750000Y-91675000D03*
X98250000Y-91675000D03*
X97750000Y-91675000D03*
D39*
X95825000Y-89750000D03*
X95825000Y-89250000D03*
X95825000Y-88750000D03*
X95825000Y-88250000D03*
X95825000Y-87750000D03*
X95825000Y-87250000D03*
X95825000Y-86750000D03*
X95825000Y-86250000D03*
X95825000Y-85750000D03*
X95825000Y-85250000D03*
X95825000Y-84750000D03*
X95825000Y-84250000D03*
X95825000Y-83750000D03*
X95825000Y-83250000D03*
X95825000Y-82750000D03*
X95825000Y-82250000D03*
D38*
X97750000Y-80325000D03*
X98250000Y-80325000D03*
X98750000Y-80325000D03*
X99250000Y-80325000D03*
X99750000Y-80325000D03*
X100250000Y-80325000D03*
X100750000Y-80325000D03*
X101250000Y-80325000D03*
X101750000Y-80325000D03*
X102250000Y-80325000D03*
X102750000Y-80325000D03*
X103250000Y-80325000D03*
X103750000Y-80325000D03*
X104250000Y-80325000D03*
X104750000Y-80325000D03*
X105250000Y-80325000D03*
D39*
X107175000Y-82250000D03*
X107175000Y-82750000D03*
X107175000Y-83250000D03*
X107175000Y-83750000D03*
X107175000Y-84250000D03*
X107175000Y-84750000D03*
X107175000Y-85250000D03*
X107175000Y-85750000D03*
X107175000Y-86250000D03*
X107175000Y-86750000D03*
X107175000Y-87250000D03*
X107175000Y-87750000D03*
X107175000Y-88250000D03*
X107175000Y-88750000D03*
X107175000Y-89250000D03*
X107175000Y-89750000D03*
%TD*%
D40*
%TO.C,BT2*%
X127000000Y-99700000D03*
X127000000Y-74300000D03*
D41*
X127000000Y-87000000D03*
%TD*%
M02*
