%TF.GenerationSoftware,KiCad,Pcbnew,9.0.6*%
%TF.CreationDate,2026-01-26T23:14:37+09:00*%
%TF.ProjectId,bokaka,626f6b61-6b61-42e6-9b69-6361645f7063,rev?*%
%TF.SameCoordinates,Original*%
%TF.FileFunction,Soldermask,Top*%
%TF.FilePolarity,Negative*%
%FSLAX46Y46*%
G04 Gerber Fmt 4.6, Leading zero omitted, Abs format (unit mm)*
G04 Created by KiCad (PCBNEW 9.0.6) date 2026-01-26 23:14:37*
%MOMM*%
%LPD*%
G01*
G04 APERTURE LIST*
G04 Aperture macros list*
%AMRoundRect*
0 Rectangle with rounded corners*
0 $1 Rounding radius*
0 $2 $3 $4 $5 $6 $7 $8 $9 X,Y pos of 4 corners*
0 Add a 4 corners polygon primitive as box body*
4,1,4,$2,$3,$4,$5,$6,$7,$8,$9,$2,$3,0*
0 Add four circle primitives for the rounded corners*
1,1,$1+$1,$2,$3*
1,1,$1+$1,$4,$5*
1,1,$1+$1,$6,$7*
1,1,$1+$1,$8,$9*
0 Add four rect primitives between the rounded corners*
20,1,$1+$1,$2,$3,$4,$5,0*
20,1,$1+$1,$4,$5,$6,$7,0*
20,1,$1+$1,$6,$7,$8,$9,0*
20,1,$1+$1,$8,$9,$2,$3,0*%
G04 Aperture macros list end*
%ADD10RoundRect,0.140000X-0.140000X-0.170000X0.140000X-0.170000X0.140000X0.170000X-0.140000X0.170000X0*%
%ADD11RoundRect,0.218750X-0.162821X0.294966X-0.316861X-0.114519X0.162821X-0.294966X0.316861X0.114519X0*%
%ADD12R,1.700000X1.700000*%
%ADD13C,1.700000*%
%ADD14RoundRect,0.218750X-0.223312X0.252284X-0.284200X-0.180958X0.223312X-0.252284X0.284200X0.180958X0*%
%ADD15RoundRect,0.218750X0.076665X0.328082X-0.311988X0.127197X-0.076665X-0.328082X0.311988X-0.127197X0*%
%ADD16RoundRect,0.218750X0.316861X-0.114519X0.162821X0.294966X-0.316861X0.114519X-0.162821X-0.294966X0*%
%ADD17RoundRect,0.218750X0.335448X0.031474X0.021554X0.336231X-0.335448X-0.031474X-0.021554X-0.336231X0*%
%ADD18RoundRect,0.135000X0.135000X0.185000X-0.135000X0.185000X-0.135000X-0.185000X0.135000X-0.185000X0*%
%ADD19RoundRect,0.218750X-0.218750X-0.256250X0.218750X-0.256250X0.218750X0.256250X-0.218750X0.256250X0*%
%ADD20R,0.750000X1.000000*%
%ADD21RoundRect,0.218750X0.026517X-0.335876X0.335876X-0.026517X-0.026517X0.335876X-0.335876X0.026517X0*%
%ADD22RoundRect,0.218750X0.256567X0.218378X-0.175413X0.287656X-0.256567X-0.218378X0.175413X-0.287656X0*%
%ADD23RoundRect,0.225000X0.250000X-0.225000X0.250000X0.225000X-0.250000X0.225000X-0.250000X-0.225000X0*%
%ADD24RoundRect,0.218750X-0.256250X0.218750X-0.256250X-0.218750X0.256250X-0.218750X0.256250X0.218750X0*%
%ADD25R,1.000000X0.750000*%
%ADD26RoundRect,0.218750X0.290029X0.171461X-0.123826X0.313341X-0.290029X-0.171461X0.123826X-0.313341X0*%
%ADD27RoundRect,0.218750X-0.094468X0.323406X-0.334223X-0.042550X0.094468X-0.323406X0.334223X0.042550X0*%
%ADD28RoundRect,0.135000X0.185000X-0.135000X0.185000X0.135000X-0.185000X0.135000X-0.185000X-0.135000X0*%
%ADD29RoundRect,0.063600X0.148400X-0.358400X0.148400X0.358400X-0.148400X0.358400X-0.148400X-0.358400X0*%
%ADD30RoundRect,0.063600X0.358400X-0.148400X0.358400X0.148400X-0.358400X0.148400X-0.358400X-0.148400X0*%
%ADD31RoundRect,0.102000X1.225000X-1.225000X1.225000X1.225000X-1.225000X1.225000X-1.225000X-1.225000X0*%
%ADD32RoundRect,0.218750X0.052401X0.332821X-0.320475X0.103977X-0.052401X-0.332821X0.320475X-0.103977X0*%
%ADD33RoundRect,0.218750X0.284200X-0.180958X0.223312X0.252284X-0.284200X0.180958X-0.223312X-0.252284X0*%
%ADD34RoundRect,0.135000X-0.135000X-0.185000X0.135000X-0.185000X0.135000X0.185000X-0.135000X0.185000X0*%
%ADD35RoundRect,0.218750X0.326534X-0.083013X0.133223X0.309463X-0.326534X0.083013X-0.133223X-0.309463X0*%
%ADD36RoundRect,0.218750X0.311988X0.127197X-0.076665X0.328082X-0.311988X-0.127197X0.076665X-0.328082X0*%
%ADD37RoundRect,0.218750X-0.021554X0.336231X-0.335448X0.031474X0.021554X-0.336231X0.335448X-0.031474X0*%
%ADD38RoundRect,0.153500X0.443500X0.153500X-0.443500X0.153500X-0.443500X-0.153500X0.443500X-0.153500X0*%
%ADD39RoundRect,0.140000X-0.170000X0.140000X-0.170000X-0.140000X0.170000X-0.140000X0.170000X0.140000X0*%
%ADD40RoundRect,0.218750X0.320475X0.103977X-0.052401X0.332821X-0.320475X-0.103977X0.052401X-0.332821X0*%
%ADD41RoundRect,0.140000X0.170000X-0.140000X0.170000X0.140000X-0.170000X0.140000X-0.170000X-0.140000X0*%
%ADD42RoundRect,0.218750X0.189272X0.278732X-0.245579X0.230665X-0.189272X-0.278732X0.245579X-0.230665X0*%
%ADD43RoundRect,0.218750X-0.133223X0.309463X-0.326534X-0.083013X0.133223X-0.309463X0.326534X0.083013X0*%
%ADD44RoundRect,0.218750X0.336117X0.023259X0.029772X0.335603X-0.336117X-0.023259X-0.029772X-0.335603X0*%
%ADD45RoundRect,0.218750X0.245579X0.230665X-0.189272X0.278732X-0.245579X-0.230665X0.189272X-0.278732X0*%
%ADD46RoundRect,0.140000X0.140000X0.170000X-0.140000X0.170000X-0.140000X-0.170000X0.140000X-0.170000X0*%
%ADD47RoundRect,0.218750X0.175413X0.287656X-0.256567X0.218378X-0.175413X-0.287656X0.256567X-0.218378X0*%
%ADD48RoundRect,0.218750X0.334223X-0.042550X0.094468X0.323406X-0.334223X0.042550X-0.094468X-0.323406X0*%
%ADD49RoundRect,0.218750X-0.029772X0.335603X-0.336117X0.023259X0.029772X-0.335603X0.336117X-0.023259X0*%
%ADD50RoundRect,0.218750X0.123826X0.313341X-0.290029X0.171461X-0.123826X-0.313341X0.290029X-0.171461X0*%
%ADD51C,1.016000*%
%ADD52R,1.270000X1.016000*%
%ADD53O,1.800000X1.200000*%
%ADD54O,2.100000X1.100000*%
%ADD55C,3.000000*%
G04 APERTURE END LIST*
D10*
%TO.C,C22*%
X113020000Y-53750000D03*
X113980000Y-53750000D03*
%TD*%
D11*
%TO.C,D14*%
X98248490Y-106384855D03*
X97693944Y-107858999D03*
%TD*%
D12*
%TO.C,UART*%
X112950000Y-78225000D03*
D13*
X112950000Y-75685000D03*
%TD*%
D12*
%TO.C,GND*%
X140357500Y-64780000D03*
%TD*%
D14*
%TO.C,D13*%
X95311360Y-117201005D03*
X95092162Y-118760677D03*
%TD*%
D15*
%TO.C,D6*%
X135156718Y-102289528D03*
X133757566Y-103012716D03*
%TD*%
D16*
%TO.C,D33*%
X193716922Y-107858999D03*
X193162376Y-106384855D03*
%TD*%
D14*
%TO.C,D3*%
X121289200Y-120600714D03*
X121070002Y-122160386D03*
%TD*%
D17*
%TO.C,D29*%
X181796398Y-89036162D03*
X180666380Y-87939036D03*
%TD*%
D18*
%TO.C,R7*%
X175160000Y-113700000D03*
X174140000Y-113700000D03*
%TD*%
%TO.C,R2*%
X193670000Y-68400000D03*
X192650000Y-68400000D03*
%TD*%
D19*
%TO.C,PWR*%
X117825000Y-57100000D03*
X119400000Y-57100000D03*
%TD*%
D20*
%TO.C,RESET*%
X192650000Y-67000000D03*
X192650000Y-61000000D03*
X196350000Y-67000000D03*
X196350000Y-61000000D03*
%TD*%
D21*
%TO.C,D35*%
X171513153Y-104426847D03*
X172626847Y-103313153D03*
%TD*%
D22*
%TO.C,D8*%
X150672606Y-100300000D03*
X149117478Y-100050600D03*
%TD*%
D12*
%TO.C,3V3*%
X128350000Y-64750000D03*
D13*
X128350000Y-67290000D03*
%TD*%
D12*
%TO.C,VSYS*%
X132342500Y-64750000D03*
%TD*%
D23*
%TO.C,C13*%
X176450000Y-113475000D03*
X176450000Y-111925000D03*
%TD*%
D24*
%TO.C,D27*%
X188100000Y-80612500D03*
X188100000Y-82187500D03*
%TD*%
D21*
%TO.C,D38*%
X168614189Y-101495812D03*
X169727883Y-100382118D03*
%TD*%
D25*
%TO.C,USR_1*%
X107000000Y-55300000D03*
X113000000Y-55300000D03*
X107000000Y-59000000D03*
X113000000Y-59000000D03*
%TD*%
D20*
%TO.C,BOOT*%
X192650000Y-59000000D03*
X192650000Y-53000000D03*
X196350000Y-59000000D03*
X196350000Y-53000000D03*
%TD*%
D12*
%TO.C,BATT*%
X136335000Y-64750000D03*
%TD*%
%TO.C,3V3*%
X124357500Y-64750000D03*
%TD*%
D26*
%TO.C,D21*%
X162989593Y-77090358D03*
X161499715Y-76579588D03*
%TD*%
D21*
%TO.C,D37*%
X176853153Y-99076847D03*
X177966847Y-97963153D03*
%TD*%
D27*
%TO.C,D15*%
X103477016Y-96471311D03*
X102613896Y-97788751D03*
%TD*%
D21*
%TO.C,D30*%
X182343153Y-90856847D03*
X183456847Y-89743153D03*
%TD*%
D28*
%TO.C,R16*%
X116112500Y-57100000D03*
X116112500Y-56080000D03*
%TD*%
D29*
%TO.C,U1*%
X179645000Y-116095000D03*
X180045000Y-116095000D03*
X180445000Y-116095000D03*
X180845000Y-116095000D03*
X181245000Y-116095000D03*
X181645000Y-116095000D03*
X182045000Y-116095000D03*
X182445000Y-116095000D03*
X182845000Y-116095000D03*
X183245000Y-116095000D03*
X183645000Y-116095000D03*
D30*
X184190000Y-115550000D03*
X184190000Y-115150000D03*
X184190000Y-114750000D03*
X184190000Y-114350000D03*
X184190000Y-113950000D03*
X184190000Y-113550000D03*
X184190000Y-113150000D03*
X184190000Y-112750000D03*
X184190000Y-112350000D03*
X184190000Y-111950000D03*
X184190000Y-111550000D03*
D29*
X183645000Y-111005000D03*
X183245000Y-111005000D03*
X182845000Y-111005000D03*
X182445000Y-111005000D03*
X182045000Y-111005000D03*
X181645000Y-111005000D03*
X181245000Y-111005000D03*
X180845000Y-111005000D03*
X180445000Y-111005000D03*
X180045000Y-111005000D03*
X179645000Y-111005000D03*
D30*
X179100000Y-111550000D03*
X179100000Y-111950000D03*
X179100000Y-112350000D03*
X179100000Y-112750000D03*
X179100000Y-113150000D03*
X179100000Y-113550000D03*
X179100000Y-113950000D03*
X179100000Y-114350000D03*
X179100000Y-114750000D03*
X179100000Y-115150000D03*
X179100000Y-115550000D03*
D31*
X181645000Y-113550000D03*
%TD*%
D32*
%TO.C,D17*%
X119700000Y-81200000D03*
X118357644Y-82023836D03*
%TD*%
D33*
%TO.C,D12*%
X170802604Y-122160386D03*
X170583406Y-120600714D03*
%TD*%
D28*
%TO.C,R4*%
X130687500Y-57100000D03*
X130687500Y-56080000D03*
%TD*%
D12*
%TO.C,USB_DETECT*%
X106850000Y-71950000D03*
%TD*%
D24*
%TO.C,D26*%
X188100000Y-73450000D03*
X188100000Y-75025000D03*
%TD*%
D33*
%TO.C,D36*%
X196318704Y-118760677D03*
X196099506Y-117201005D03*
%TD*%
D34*
%TO.C,R3*%
X196350000Y-51550000D03*
X197370000Y-51550000D03*
%TD*%
D35*
%TO.C,D11*%
X168711440Y-114519988D03*
X168015520Y-113107076D03*
%TD*%
D36*
%TO.C,D9*%
X158115040Y-103012716D03*
X156715888Y-102289528D03*
%TD*%
D37*
%TO.C,D16*%
X110744486Y-87939036D03*
X109614468Y-89036162D03*
%TD*%
D38*
%TO.C,U4*%
X94420000Y-70550000D03*
X94420000Y-69900000D03*
X94420000Y-69250000D03*
X92480000Y-69250000D03*
X92480000Y-70550000D03*
%TD*%
D39*
%TO.C,C2*%
X191100000Y-61000000D03*
X191100000Y-61960000D03*
%TD*%
D40*
%TO.C,D22*%
X173053222Y-82023836D03*
X171710866Y-81200000D03*
%TD*%
D41*
%TO.C,C12*%
X177850000Y-113155000D03*
X177850000Y-112195000D03*
%TD*%
D19*
%TO.C,USR*%
X132200000Y-57100000D03*
X133775000Y-57100000D03*
%TD*%
D42*
%TO.C,D19*%
X140884910Y-74300891D03*
X139319444Y-74473933D03*
%TD*%
D43*
%TO.C,D4*%
X123857086Y-113107076D03*
X123161166Y-114519988D03*
%TD*%
D10*
%TO.C,C14*%
X101490000Y-53750000D03*
X102450000Y-53750000D03*
%TD*%
D44*
%TO.C,D10*%
X164335967Y-107916664D03*
X163233125Y-106792224D03*
%TD*%
D12*
%TO.C,J6*%
X109760000Y-122000000D03*
D13*
X112300000Y-122000000D03*
X114840000Y-122000000D03*
%TD*%
D24*
%TO.C,D23*%
X188100000Y-51962500D03*
X188100000Y-53537500D03*
%TD*%
D45*
%TO.C,D20*%
X152091422Y-74473933D03*
X150525956Y-74300891D03*
%TD*%
D46*
%TO.C,C18*%
X124500000Y-73000000D03*
X123540000Y-73000000D03*
%TD*%
D21*
%TO.C,D32*%
X178093153Y-95006847D03*
X179206847Y-93893153D03*
%TD*%
D47*
%TO.C,D7*%
X142755128Y-100050600D03*
X141200000Y-100300000D03*
%TD*%
D24*
%TO.C,D24*%
X188100000Y-59125000D03*
X188100000Y-60700000D03*
%TD*%
D48*
%TO.C,D31*%
X188796970Y-97788751D03*
X187933850Y-96471311D03*
%TD*%
D49*
%TO.C,D5*%
X128639481Y-106792224D03*
X127536639Y-107916664D03*
%TD*%
D28*
%TO.C,R6*%
X123587500Y-57100000D03*
X123587500Y-56080000D03*
%TD*%
D19*
%TO.C,DEBUG*%
X125000000Y-57100000D03*
X126575000Y-57100000D03*
%TD*%
D21*
%TO.C,D28*%
X186193153Y-86906847D03*
X187306847Y-85793153D03*
%TD*%
D50*
%TO.C,D18*%
X129911151Y-76579588D03*
X128421273Y-77090358D03*
%TD*%
D21*
%TO.C,D34*%
X173953153Y-96166847D03*
X175066847Y-95053153D03*
%TD*%
D24*
%TO.C,D25*%
X188100000Y-66287500D03*
X188100000Y-67862500D03*
%TD*%
D12*
%TO.C,J5*%
X179110000Y-122000000D03*
D13*
X181650000Y-122000000D03*
X184190000Y-122000000D03*
%TD*%
D51*
%TO.C,J3*%
X90009400Y-93810000D03*
D52*
X90009400Y-93810000D03*
D51*
X90009400Y-92540000D03*
D52*
X90009400Y-92540000D03*
D51*
X90009400Y-91270000D03*
D52*
X90009400Y-91270000D03*
D51*
X90009400Y-88730000D03*
D52*
X90009400Y-88730000D03*
D51*
X90009400Y-87460000D03*
D52*
X90009400Y-87460000D03*
D51*
X90009400Y-86190000D03*
D52*
X90009400Y-86190000D03*
%TD*%
D53*
%TO.C,USBC1*%
X93062250Y-74325000D03*
D54*
X97262250Y-74325000D03*
D53*
X93062250Y-65675000D03*
D54*
X97262250Y-65675000D03*
%TD*%
D55*
%TO.C,BT2*%
X127000000Y-99700000D03*
X127000000Y-74300000D03*
%TD*%
D25*
%TO.C,USR_0*%
X95500000Y-55300000D03*
X101500000Y-55300000D03*
X95500000Y-59000000D03*
X101500000Y-59000000D03*
%TD*%
M02*
