M48
; DRILL file {KiCad 9.0.6} date 2026-01-26T23:14:37+0900
; FORMAT={-:-/ absolute / inch / decimal}
; #@! TF.CreationDate,2026-01-26T23:14:37+09:00
; #@! TF.GenerationSoftware,Kicad,Pcbnew,9.0.6
; #@! TF.FileFunction,Plated,1,2,PTH
FMAT,2
INCH
; #@! TA.AperFunction,Plated,PTH,ComponentDrill
T1C0.0079
; #@! TA.AperFunction,Plated,PTH,ViaDrill
T2C0.0118
; #@! TA.AperFunction,Plated,PTH,ComponentDrill
T3C0.0276
; #@! TA.AperFunction,Plated,PTH,ComponentDrill
T4C0.0320
; #@! TA.AperFunction,Plated,PTH,ComponentDrill
T5C0.0394
; #@! TA.AperFunction,Plated,PTH,ComponentDrill
T6C0.0748
%
G90
G05
T1
X4.3524Y-2.463
X4.3524Y-2.4925
X4.3524Y-2.522
X4.3799Y-2.463
X4.3799Y-2.4925
X4.3799Y-2.522
T2
X3.5886Y-2.7264
X3.5906Y-3.5945
X3.6088Y-3.2682
X3.6297Y-3.7694
X3.6565Y-3.2195
X3.6634Y-3.7707
X3.6969Y-3.4409
X3.7598Y-3.5945
X3.7657Y-2.6476
X3.7657Y-2.8445
X3.7854Y-2.7776
X3.7858Y-2.7267
X3.7992Y-4.7323
X3.8051Y-4.3169
X3.813Y-3.6713
X3.8268Y-3.3091
X3.8366Y-3.376
X3.8406Y-3.5596
X3.8681Y-3.6791
X3.8967Y-2.998
X3.9173Y-2.4213
X3.9193Y-3.0689
X3.9232Y-4.1594
X3.9331Y-2.6063
X3.937Y-2.9094
X3.939Y-2.7185
X3.9488Y-3.2727
X3.9528Y-3.0689
X3.9626Y-2.4547
X3.9764Y-3.2126
X3.9902Y-2.7461
X3.9902Y-2.998
X4.0049Y-3.8858
X4.0059Y-3.0709
X4.0118Y-2.8701
X4.0157Y-2.7185
X4.0157Y-3.3819
X4.0325Y-3.2665
X4.0453Y-2.8957
X4.0459Y-3.462
X4.0827Y-3.2687
X4.0925Y-3.4045
X4.0994Y-3.5591
X4.122Y-3.502
X4.124Y-3.4394
X4.1339Y-3.7776
X4.1372Y-3.3941
X4.1762Y-3.7156
X4.2008Y-3.1654
X4.2283Y-3.7156
X4.2953Y-3.5965
X4.2982Y-3.2382
X4.3543Y-3.6634
X4.3829Y-3.3789
X4.3878Y-3.502
X4.4242Y-3.2274
X4.437Y-3.4941
X4.4646Y-3.2047
X4.4665Y-3.4665
X4.4783Y-2.8287
X4.4823Y-4.3366
X4.502Y-2.8524
X4.5315Y-2.7755
X4.5551Y-2.7992
X4.5591Y-2.9606
X4.5591Y-3.2992
X4.5679Y-3.1083
X4.5778Y-3.247
X4.6526Y-2.9656
X4.6575Y-2.3976
X4.6703Y-2.4577
X4.7008Y-2.2953
X4.7343Y-2.4587
X4.7579Y-2.5492
X4.8061Y-4.6476
X4.815Y-4.7165
X4.8996Y-4.8189
X4.9163Y-4.3199
X4.9242Y-4.4193
X5.0276Y-4.5413
X5.0866Y-4.5394
X5.11Y-4.2045
X5.1142Y-2.8583
X5.4902Y-3.9734
X5.5925Y-2.9665
X5.6565Y-4.0226
X6.0098Y-4.0
X6.0256Y-2.9843
X6.2402Y-4.1102
X6.4065Y-3.186
X6.4154Y-4.5433
X6.4469Y-3.0945
X6.4688Y-4.3068
X6.5Y-4.3799
X6.5315Y-4.4252
X6.5512Y-4.4724
X6.5886Y-4.8189
X6.6673Y-4.2874
X6.6713Y-4.6063
X6.7008Y-4.3799
X6.7047Y-4.6046
X6.7175Y-4.4252
X6.7343Y-3.9154
X6.7382Y-4.6043
X6.7579Y-4.3504
X6.7618Y-4.4311
X6.7913Y-4.7057
X6.8051Y-4.6358
X6.8248Y-4.7057
X6.8307Y-3.2894
X6.8583Y-4.7057
X6.8917Y-4.7057
X6.9252Y-4.7057
X6.9586Y-4.7057
X6.9843Y-3.7943
X7.0217Y-4.7008
X7.0295Y-3.5492
X7.0835Y-4.4232
X7.0945Y-3.6417
X7.1035Y-4.7185
X7.1369Y-4.7185
X7.1575Y-3.4154
X7.1704Y-4.7185
X7.2039Y-4.7185
X7.2461Y-4.3287
X7.2913Y-4.3327
X7.2914Y-4.3898
X7.3031Y-3.4764
X7.311Y-2.7411
X7.313Y-2.3228
X7.3268Y-4.3101
X7.3268Y-4.3898
X7.3681Y-4.3898
X7.372Y-3.6831
X7.3812Y-3.5545
X7.4016Y-4.3898
X7.4055Y-2.1516
X7.4055Y-2.4331
X7.4055Y-2.7165
X7.4055Y-2.998
X7.435Y-4.3898
X7.4685Y-4.3898
X7.4783Y-2.0551
X7.502Y-4.3898
X7.5138Y-4.3031
X7.5187Y-2.7411
X7.5236Y-2.5866
X7.5354Y-4.3898
X7.6024Y-4.3327
X7.6024Y-4.3976
X7.625Y-2.7352
X7.7933Y-2.3228
T4
X3.5437Y-3.3933
X3.5437Y-3.4433
X3.5437Y-3.4933
X3.5437Y-3.5933
X3.5437Y-3.6433
X3.5437Y-3.6933
T5
X4.2067Y-2.8327
X4.3213Y-4.8031
X4.4213Y-4.8031
X4.4469Y-2.9797
X4.4469Y-3.0797
X4.5213Y-4.8031
X4.896Y-2.5492
X5.0531Y-2.5492
X5.0531Y-2.6492
X5.2103Y-2.5492
X5.3675Y-2.5492
X5.5259Y-2.5504
X7.0516Y-4.8031
X7.1516Y-4.8031
X7.2516Y-4.8031
T6
X5.0Y-2.9252
X5.0Y-3.9252
T3
G00X3.6501Y-2.5856
M15
G01X3.6776Y-2.5856
M16
G05
G00X3.6501Y-2.9262
M15
G01X3.6776Y-2.9262
M16
G05
G00X3.8095Y-2.5856
M15
G01X3.8489Y-2.5856
M16
G05
G00X3.8095Y-2.9262
M15
G01X3.8489Y-2.9262
M16
G05
M30
